# xmcd
#
# Track frame offsets:
#	150
#	21150
#	43835
#	69287
#	81235
#	103812
#	125227
#	144177
#	172847
#	191080
#
# Disc length: 2831 seconds
#
# Revision: 2
# Processed by: cddbd v1.5.2PL0 Copyright (c) Steve Scherf et al.
# Submitted via: EZCDAudioConverter 8.0.2.1
#
DISCID=880b0d0a
DTITLE=Phương Dung - Tình Ca 20. Ngày Đó Xa Rồi
DYEAR=1993
DGENRE=Country
TTITLE0=Qua cơn mê
TTITLE1=Nếu anh đừng hẹn
TTITLE2=Ngày Áy Xa Rồi
TTITLE3=Hình ảnh người em không đợi
TTITLE4=Nếu ta đừng quen nhau
TTITLE5=Yêu một mình
TTITLE6=Chuyện hai người
TTITLE7=Vọng gác đêm sương
TTITLE8=Đổi thay
TTITLE9=Gió chuyển mùa yêu thương
EXTD=
EXTT0=
EXTT1=
EXTT2=
EXTT3=
EXTT4=
EXTT5=
EXTT6=
EXTT7=
EXTT8=
EXTT9=
PLAYORDER=
